<svg xmlns="http://www.w3.org/2000/svg" xmlns:xlink="http://www.w3.org/1999/xlink" width="500" zoomAndPan="magnify" viewBox="0 0 375 262.499992" height="350" preserveAspectRatio="xMidYMid meet" version="1.0"><defs><g/></defs><g fill="#020301" fill-opacity="1"><g transform="translate(90.146849, 100.008152)"><g><path d="M 33.078125 -94.75 C 33.210938 -94.925781 33.410156 -95.015625 33.671875 -95.015625 L 35.0625 -95.015625 C 40.195312 -96.160156 44.984375 -95.941406 49.421875 -94.359375 C 51.304688 -94.222656 53.128906 -94.046875 54.890625 -93.828125 L 57.59375 -93.890625 C 59.65625 -94.023438 64.066406 -93.4375 70.828125 -92.125 C 73.640625 -91.59375 75.992188 -91.367188 77.890625 -91.453125 L 79 -91.53125 C 79.53125 -91.570312 80.960938 -92.226562 83.296875 -93.5 L 83.6875 -93.5 C 84.257812 -93.457031 84.566406 -93.238281 84.609375 -92.84375 L 84.609375 -91.859375 C 86.316406 -85.441406 85.109375 -79.640625 80.984375 -74.453125 L 79.796875 -74.390625 C 76.191406 -75.222656 68.238281 -76.300781 55.9375 -77.625 C 54.757812 -71.34375 53.332031 -62.707031 51.65625 -51.71875 C 48.320312 -41.925781 44.082031 -18.226562 38.9375 19.375 L 38.09375 19.828125 L 37.15625 19.828125 C 31.144531 19.828125 28.03125 10.472656 27.8125 -8.234375 C 27.59375 -26.953125 28.515625 -42.632812 30.578125 -55.28125 L 30.578125 -58.96875 C 30.578125 -61.78125 31.648438 -67.671875 33.796875 -76.640625 C 34.191406 -78.265625 34.5 -79.800781 34.71875 -81.25 C 25.71875 -82.4375 13.96875 -83.6875 -0.53125 -85 L -0.921875 -85.59375 L -0.921875 -86.328125 C -1.140625 -90.804688 5.734375 -93.460938 19.703125 -94.296875 C 24.398438 -94.554688 28.859375 -94.707031 33.078125 -94.75 Z M 33.078125 -94.75 "/></g></g></g><g fill="#020301" fill-opacity="1"><g transform="translate(178.109126, 100.008152)"><g><path d="M 9.21875 -93.640625 L 10.484375 -93.640625 C 14.035156 -93.640625 18.007812 -90.234375 22.40625 -83.421875 C 21.132812 -52.890625 20.738281 -37.625 21.21875 -37.625 C 26.882812 -44.4375 31.691406 -47.84375 35.640625 -47.84375 C 42.765625 -47.84375 47.398438 -39.78125 49.546875 -23.65625 C 50.253906 -19.21875 53.550781 -14.253906 59.4375 -8.765625 L 59.4375 -7.90625 C 59 -6.457031 57.15625 -5.734375 53.90625 -5.734375 L 51.796875 -5.734375 C 43.710938 -5.734375 38.679688 -11.550781 36.703125 -23.1875 C 34.203125 -30.257812 31.457031 -33.796875 28.46875 -33.796875 C 25.789062 -33.796875 23.660156 -27.976562 22.078125 -16.34375 C 19.703125 -14.5 14.738281 -12.519531 7.1875 -10.40625 C 3.625 -10.40625 1.492188 -12.820312 0.796875 -17.65625 C 3.910156 -29.644531 6.851562 -51.566406 9.625 -83.421875 C 9.625 -84.828125 9.207031 -87.53125 8.375 -91.53125 L 8.375 -92.78125 C 8.457031 -93.351562 8.738281 -93.640625 9.21875 -93.640625 Z M 9.21875 -93.640625 "/></g></g></g><g fill="#020301" fill-opacity="1"><g transform="translate(235.894076, 100.008152)"><g><path d="M 26.421875 -65.5 C 31.335938 -65.5 36.695312 -61.300781 42.5 -52.90625 C 42.5 -52.113281 42.738281 -51.082031 43.21875 -49.8125 C 41.863281 -43.75 36.53125 -37.644531 27.21875 -31.5 C 24.925781 -30.96875 23.253906 -30.703125 22.203125 -30.703125 L 21.875 -30.703125 C 21.476562 -30.703125 21.082031 -31.097656 20.6875 -31.890625 C 20.6875 -33.378906 23.367188 -38.34375 28.734375 -46.78125 C 29.742188 -49.332031 30.25 -51.484375 30.25 -53.234375 L 30.25 -53.640625 C 30.25 -57.109375 28.335938 -59.523438 24.515625 -60.890625 C 20.335938 -59.828125 17.789062 -51.546875 16.875 -36.046875 C 16.875 -25.367188 19.816406 -20.03125 25.703125 -20.03125 L 26.421875 -20.03125 C 37.097656 -22.3125 43.335938 -23.453125 45.140625 -23.453125 L 45.53125 -23.453125 C 46.320312 -23.453125 46.71875 -22.945312 46.71875 -21.9375 C 46.71875 -19.96875 42.128906 -16.519531 32.953125 -11.59375 C 30.265625 -10.0625 26.8125 -8.921875 22.59375 -8.171875 C 13.851562 -8.171875 7.488281 -13.769531 3.5 -24.96875 C 2.75 -28.175781 2.242188 -31.757812 1.984375 -35.71875 C 1.984375 -49.863281 7.847656 -59.414062 19.578125 -64.375 C 22.160156 -65.125 24.441406 -65.5 26.421875 -65.5 Z M 26.421875 -65.5 "/></g></g></g><g fill="#020301" fill-opacity="1"><g transform="translate(13.060213, 236.95095)"><g><path d="M 9.03125 -93.171875 C 8.8125 -93.648438 8.566406 -94.175781 8.296875 -94.75 L 8.296875 -95.28125 C 8.390625 -96.070312 8.695312 -96.46875 9.21875 -96.46875 L 10.609375 -96.46875 C 13.023438 -97.039062 15.351562 -97.28125 17.59375 -97.1875 C 19 -97.582031 20.554688 -97.976562 22.265625 -98.375 C 32.640625 -100.664062 41.316406 -101.851562 48.296875 -101.9375 L 50.28125 -102.328125 C 51.863281 -102.679688 55.113281 -102.660156 60.03125 -102.265625 C 62.050781 -102.085938 63.765625 -102.128906 65.171875 -102.390625 L 66.03125 -102.59375 C 66.46875 -102.6875 67.5625 -103.4375 69.3125 -104.84375 L 69.578125 -104.90625 C 70.023438 -104.945312 70.222656 -104.789062 70.171875 -104.4375 L 70.171875 -103.515625 C 71.234375 -97.941406 70.113281 -92.582031 66.8125 -87.4375 L 65.953125 -87.25 C 63.097656 -87.6875 56.53125 -87.75 46.25 -87.4375 C 43.707031 -87.96875 39.472656 -88.273438 33.546875 -88.359375 C 32.179688 -83.304688 30.3125 -72.875 27.9375 -57.0625 C 30.175781 -57.414062 32.238281 -57.613281 34.125 -57.65625 L 35.578125 -58.046875 C 36.722656 -58.398438 39.050781 -58.378906 42.5625 -57.984375 C 44.0625 -57.804688 45.316406 -57.851562 46.328125 -58.125 L 46.921875 -58.3125 C 47.222656 -58.40625 47.988281 -57.1875 49.21875 -54.65625 C 50.445312 -52.132812 49.878906 -48.300781 47.515625 -43.15625 L 46.921875 -42.96875 C 44.804688 -43.40625 40.0625 -43.46875 32.6875 -43.15625 C 31.0625 -43.59375 28.488281 -43.878906 24.96875 -44.015625 C 22.03125 -31.410156 18.539062 -9.882812 14.5 20.5625 L 13.640625 21.078125 L 12.71875 21.078125 C 6.695312 21.078125 3.578125 11.484375 3.359375 -7.703125 C 3.179688 -21.191406 3.578125 -33.117188 4.546875 -43.484375 L 4.421875 -43.484375 L 4.21875 -44.015625 L 4.21875 -44.609375 C 4.21875 -45.703125 4.484375 -46.734375 5.015625 -47.703125 C 5.316406 -50.515625 5.6875 -53.21875 6.125 -55.8125 L 6.125 -59.5 C 6.125 -62.394531 7.203125 -68.414062 9.359375 -77.5625 C 10.234375 -81.382812 10.671875 -84.585938 10.671875 -87.171875 L 10.609375 -87.90625 C 9.460938 -87.851562 8.273438 -87.804688 7.046875 -87.765625 L 6.78125 -88.296875 L 6.78125 -88.890625 C 6.78125 -90.429688 7.53125 -91.859375 9.03125 -93.171875 Z M 9.03125 -93.171875 "/></g></g></g><g fill="#020301" fill-opacity="1"><g transform="translate(84.154818, 236.95095)"><g><path d="M 37.828125 -56.796875 L 41.125 -56.796875 C 47.488281 -56.054688 50.671875 -54.957031 50.671875 -53.5 L 50.671875 -52.390625 C 50.585938 -51.722656 45.316406 -49.394531 34.859375 -45.40625 C 27.867188 -42.238281 22.597656 -37.472656 19.046875 -31.109375 L 18.3125 -28.53125 L 18.3125 -27.8125 C 19.320312 -25.832031 20.554688 -24.84375 22.015625 -24.84375 L 23.859375 -24.84375 C 27.328125 -24.84375 33.191406 -29.367188 41.453125 -38.421875 C 45.359375 -42.109375 48.429688 -43.953125 50.671875 -43.953125 L 51.71875 -43.953125 C 52.070312 -43.953125 52.820312 -43.226562 53.96875 -41.78125 L 53.96875 -39.53125 C 51.375 -21.914062 48.429688 -13.109375 45.140625 -13.109375 L 44.734375 -13.109375 C 42.328125 -14.390625 39.890625 -18.191406 37.421875 -24.515625 L 36.703125 -24.515625 C 26.640625 -17.878906 19.171875 -14.5625 14.296875 -14.5625 C 8.671875 -14.5625 4.628906 -17.375 2.171875 -23 C 2.171875 -23.738281 1.929688 -25.34375 1.453125 -27.8125 C 1.453125 -37.957031 9.773438 -46.765625 26.421875 -54.234375 C 31.953125 -55.941406 35.753906 -56.796875 37.828125 -56.796875 Z M 37.828125 -56.796875 "/></g></g></g><g fill="#020301" fill-opacity="1"><g transform="translate(140.62199, 236.95095)"><g><path d="M 6 -59.890625 L 7.25 -59.890625 C 10.800781 -59.890625 14.773438 -56.488281 19.171875 -49.6875 C 20.671875 -45.15625 21.660156 -42.890625 22.140625 -42.890625 C 27.804688 -49.703125 32.617188 -53.109375 36.578125 -53.109375 C 43.691406 -53.109375 46.519531 -50.394531 45.0625 -44.96875 C 43.613281 -39.539062 38.390625 -37.578125 29.390625 -39.078125 C 26.710938 -39.078125 24.140625 -28.992188 21.671875 -8.828125 C 19.304688 -6.984375 14.34375 -5.007812 6.78125 -2.90625 C 3.226562 -2.90625 1.097656 -5.316406 0.390625 -10.140625 C 4.390625 -30.660156 6.390625 -43.84375 6.390625 -49.6875 C 6.390625 -51.09375 5.972656 -53.789062 5.140625 -57.78125 L 5.140625 -59.046875 C 5.222656 -59.609375 5.507812 -59.890625 6 -59.890625 Z M 6 -59.890625 "/></g></g></g><g fill="#020301" fill-opacity="1"><g transform="translate(186.217413, 236.95095)"><g><path d="M 44.484375 -57.203125 L 44.34375 -55.9375 C 43.988281 -52.425781 37.773438 -50.515625 25.703125 -50.203125 C 19.460938 -48.628906 19.503906 -45.425781 25.828125 -40.59375 C 32.148438 -35.757812 35.113281 -31.390625 34.71875 -27.484375 C 34.019531 -20.359375 26.53125 -13.679688 12.25 -7.453125 C 7.59375 -5.734375 3.789062 -6.804688 0.84375 -10.671875 C -2.09375 -14.535156 1.578125 -19.457031 11.859375 -25.4375 C 17.960938 -29.476562 20.53125 -32.5625 19.5625 -34.6875 C 18.601562 -36.820312 15.242188 -38.863281 9.484375 -40.8125 C 3.734375 -42.769531 2.066406 -46.4375 4.484375 -51.8125 C 6.898438 -57.195312 11.015625 -59.691406 16.828125 -59.296875 C 22.648438 -58.910156 28.460938 -58.429688 34.265625 -57.859375 C 35.671875 -57.679688 38.414062 -57.8125 42.5 -58.25 L 43.75 -58.1875 C 44.28125 -58.007812 44.523438 -57.679688 44.484375 -57.203125 Z M 44.484375 -57.203125 "/></g></g></g><g fill="#020301" fill-opacity="1"><g transform="translate(232.471746, 236.95095)"><g><path d="M 37.828125 -56.796875 L 41.125 -56.796875 C 47.488281 -56.054688 50.671875 -54.957031 50.671875 -53.5 L 50.671875 -52.390625 C 50.585938 -51.722656 45.316406 -49.394531 34.859375 -45.40625 C 27.867188 -42.238281 22.597656 -37.472656 19.046875 -31.109375 L 18.3125 -28.53125 L 18.3125 -27.8125 C 19.320312 -25.832031 20.554688 -24.84375 22.015625 -24.84375 L 23.859375 -24.84375 C 27.328125 -24.84375 33.191406 -29.367188 41.453125 -38.421875 C 45.359375 -42.109375 48.429688 -43.953125 50.671875 -43.953125 L 51.71875 -43.953125 C 52.070312 -43.953125 52.820312 -43.226562 53.96875 -41.78125 L 53.96875 -39.53125 C 51.375 -21.914062 48.429688 -13.109375 45.140625 -13.109375 L 44.734375 -13.109375 C 42.328125 -14.390625 39.890625 -18.191406 37.421875 -24.515625 L 36.703125 -24.515625 C 26.640625 -17.878906 19.171875 -14.5625 14.296875 -14.5625 C 8.671875 -14.5625 4.628906 -17.375 2.171875 -23 C 2.171875 -23.738281 1.929688 -25.34375 1.453125 -27.8125 C 1.453125 -37.957031 9.773438 -46.765625 26.421875 -54.234375 C 31.953125 -55.941406 35.753906 -56.796875 37.828125 -56.796875 Z M 37.828125 -56.796875 "/></g></g></g><g fill="#020301" fill-opacity="1"><g transform="translate(288.938918, 236.95095)"><g><path d="M 6 -59.890625 L 7.25 -59.890625 C 10.800781 -59.890625 14.773438 -56.488281 19.171875 -49.6875 C 20.671875 -45.15625 21.660156 -42.890625 22.140625 -42.890625 C 27.804688 -49.703125 32.617188 -53.109375 36.578125 -53.109375 C 43.691406 -53.109375 51.070312 -46.300781 58.71875 -32.6875 C 61.039062 -29.125 65.144531 -24.597656 71.03125 -19.109375 L 71.03125 -18.25 C 70.59375 -16.800781 68.75 -16.078125 65.5 -16.078125 L 63.390625 -16.078125 C 55.304688 -16.078125 47.796875 -20.910156 40.859375 -30.578125 C 36.203125 -36.242188 32.378906 -39.078125 29.390625 -39.078125 C 26.710938 -39.078125 24.582031 -33.253906 23 -21.609375 C 20.625 -19.765625 15.660156 -17.789062 8.109375 -15.6875 C 4.546875 -15.6875 2.414062 -18.101562 1.71875 -22.9375 C 4.832031 -34.925781 6.390625 -43.84375 6.390625 -49.6875 C 6.390625 -51.09375 5.972656 -53.789062 5.140625 -57.78125 L 5.140625 -59.046875 C 5.222656 -59.609375 5.507812 -59.890625 6 -59.890625 Z M 6 -59.890625 "/></g></g></g></svg>